# xmcd
#
# Track frame offsets:
#	150
#	18479
#	34663
#	48241
#	64271
#	78949
#	96627
#	110959
#	126983
#	145319
#	163287
#	179673
#	197524
#	210827
#	222356
#	233121
#	250571
#	267625
#	283607
#	299216
#
# Disc length: 4296
#
# Revision: 1
# Processed by: cddbd v1.5.1PL0 Copyright (c) Steve Scherf et al.
# Submitted via: VisiTrax 2.9.2.167 - For more info visit www.synapsa.com
# Normalized: r0:DSETVAR1
#
DISCID=4110c614
DTITLE=Various Artist - Nu Music Traxx #110
DYEAR=1900
DGENRE=
TTITLE0=Daniel Bedingfield - If You're Not The One
TTITLE1=Field Mob - Sick Of Being Lonely
TTITLE2=Wayne Wonder - No Letting Go
TTITLE3=Paulina Rubio - Sexual Lover
TTITLE4=Anastacia - Love Is A Crime
TTITLE5=Tyrese - How You Gonna Act Like That
TTITLE6=Sugarbabes - Freak Like Me
TTITLE7=Cassius - The Sound of Violence: Narcotic Thrust Edit
TTITLE8=Snoop Dogg ft. Pharrell and Uncle Charlie Wilson - Beatiful
TTITLE9=Brad Paisley - I Wish You'd Stay
TTITLE10=Alan Jackson - That'd Be Alright
TTITLE11=Kenny Chesney - Big Star
TTITLE12=Good Charlotte - The Anthem
TTITLE13=Unwritten Law - Rest of My Life
TTITLE14=Sugarcult - Bouncing Off The Walls: Mark Trombino Radio Edit
TTITLE15=Matchbox Twenty - Unwell
TTITLE16=New Found Glory - Head On Collision
TTITLE17=Kelly Osbourne - Come Dig Me Out
TTITLE18=Feel - Got Your Name On It
TTITLE19=Coldplay - Clocks
EXTD=March 03
EXTT0=
EXTT1=
EXTT2=
EXTT3=
EXTT4=
EXTT5=
EXTT6=
EXTT7=
EXTT8=
EXTT9=
EXTT10=
EXTT11=
EXTT12=
EXTT13=
EXTT14=
EXTT15=
EXTT16=
EXTT17=
EXTT18=
EXTT19=
PLAYORDER=
